<svg xmlns="http://www.w3.org/2000/svg" viewBox="0 0 1200 900" role="img" aria-labelledby="title desc">
  <title id="title">Apex Satchel</title>
  <desc id="desc">A structured black leather satchel with a gold clasp.</desc>
  <rect width="1200" height="900" fill="#070909"/>
  <path d="M309 245h582c48 0 82 35 79 83l-25 381c-3 43-39 77-82 77H337c-43 0-79-34-82-77l-25-381c-3-48 31-83 79-83Z" fill="#111514" stroke="#352f22" stroke-width="6"/>
  <path d="M286 326h628l-53 245c-11 50-55 85-106 85H445c-51 0-95-35-106-85l-53-245Z" fill="#171c1a" stroke="#D4AF37" stroke-width="7"/>
  <path d="M436 245c4-73 58-119 164-119s160 46 164 119" fill="none" stroke="#D4AF37" stroke-width="18" stroke-linecap="round"/>
  <rect x="534" y="529" width="132" height="94" rx="12" fill="#D4AF37"/>
  <path d="M568 570h64" stroke="#060606" stroke-width="12" stroke-linecap="round"/>
  <path d="M324 378c167 39 356 40 552 0" fill="none" stroke="#5A171C" stroke-width="10" opacity=".7"/>
  <g opacity=".25" stroke="#A7A19A" stroke-width="2">
    <path d="M292 426h616"/>
    <path d="M310 486h580"/>
    <path d="M331 546h538"/>
  </g>
  <ellipse cx="600" cy="812" rx="355" ry="34" fill="#000" opacity=".55"/>
</svg>
