<svg xmlns="http://www.w3.org/2000/svg" viewBox="0 0 1200 900" role="img" aria-labelledby="title desc">
  <title id="title">Obsidian Weekender</title>
  <desc id="desc">A black leather weekender bag with gold hardware.</desc>
  <rect width="1200" height="900" fill="#080909"/>
  <path d="M176 622c17-158 84-268 195-329 95-52 210-60 344-25 136 36 229 117 279 244 18 46 25 85 21 116-8 60-71 92-191 95H345c-117-3-173-37-169-101Z" fill="#111514"/>
  <path d="M207 615c14-126 78-223 192-291 90-54 198-63 324-26 126 37 212 113 258 229 16 40 22 72 18 96-8 45-58 68-151 70H355c-101-3-150-29-148-78Z" fill="#171b1a" stroke="#3a3121" stroke-width="5"/>
  <path d="M371 314c-2-83 51-133 157-151 89-15 159 11 210 78 28 37 42 80 42 129" fill="none" stroke="#D4AF37" stroke-width="18" stroke-linecap="round"/>
  <path d="M351 391h488" stroke="#D4AF37" stroke-width="9" stroke-linecap="round"/>
  <path d="M443 485h290" stroke="#2C2E2D" stroke-width="28" stroke-linecap="round"/>
  <path d="M463 485h250" stroke="#D4AF37" stroke-width="7" stroke-linecap="round"/>
  <rect x="535" y="455" width="96" height="78" rx="10" fill="#D4AF37"/>
  <rect x="556" y="476" width="54" height="36" rx="5" fill="#090909"/>
  <g opacity=".24" stroke="#A7A19A" stroke-width="2">
    <path d="M230 604c235-62 488-63 751 0"/>
    <path d="M258 544c206-51 428-49 664 5"/>
    <path d="M312 470c164-38 345-34 545 9"/>
  </g>
  <ellipse cx="600" cy="765" rx="420" ry="35" fill="#000" opacity=".55"/>
</svg>
