<svg xmlns="http://www.w3.org/2000/svg" viewBox="0 0 240 240" role="img" aria-labelledby="title desc">
  <title id="title">House of Piranha gold crest</title>
  <desc id="desc">A stylized gold piranha mark inside a shield.</desc>
  <rect width="240" height="240" rx="24" fill="#050505"/>
  <path d="M120 28 194 55v54c0 47-28 83-74 103-46-20-74-56-74-103V55l74-27Z" fill="#0f1414" stroke="#D4AF37" stroke-width="7"/>
  <path d="M63 122c20-37 57-61 111-52-8 15-19 27-32 34 13 6 23 17 30 32-39 11-75 3-109-14Z" fill="#D4AF37"/>
  <path d="M89 116c20-17 45-23 78-18-22 7-41 17-56 32l-22-14Z" fill="#050505" opacity=".75"/>
  <circle cx="160" cy="87" r="5" fill="#050505"/>
  <path d="M55 121 35 104l6 33 14-16Z" fill="#D4AF37"/>
  <path d="M132 106 119 93l-10 18-12-14-9 19" fill="none" stroke="#050505" stroke-width="6" stroke-linejoin="round"/>
</svg>
